<?xml version="1.0" standalone="no"?>
<!DOCTYPE svg PUBLIC "-//W3C//DTD SVG 20010904//EN"
 "http://www.w3.org/TR/2001/REC-SVG-20010904/DTD/svg10.dtd">
<svg version="1.0" xmlns="http://www.w3.org/2000/svg"
 width="428.000000pt" height="428.000000pt" viewBox="0 0 428.000000 428.000000"
 preserveAspectRatio="xMidYMid meet">
<metadata>
Created by potrace 1.11, written by Peter Selinger 2001-2013
</metadata>
<g transform="translate(0.000000,428.000000) scale(0.100000,-0.100000)"
fill="#000000" stroke="none">
<path d="M1183 4231 c-136 -149 -148 -164 -145 -183 2 -10 -8 -33 -22 -51 -14
-18 -29 -53 -35 -77 -6 -25 -16 -63 -24 -85 -23 -67 -10 -665 14 -665 5 0 9
-20 9 -44 0 -25 5 -57 10 -72 6 -14 12 -49 14 -78 2 -28 5 -51 6 -51 1 0 3 -8
5 -17 3 -14 -2 -17 -21 -12 -37 9 -69 -3 -82 -31 -15 -33 -15 -177 -1 -247 30
-145 93 -347 161 -522 16 -40 54 -83 98 -111 l38 -24 6 -138 c7 -139 29 -291
47 -325 8 -14 1 -30 -31 -75 -31 -43 -52 -93 -86 -203 -26 -80 -69 -193 -97
-253 -50 -107 -51 -108 -111 -139 -172 -90 -309 -152 -424 -193 -70 -25 -145
-53 -167 -61 -45 -18 -90 -33 -190 -63 -38 -12 -89 -29 -112 -37 l-43 -16 0
-229 0 -229 798 0 797 0 24 53 c87 189 115 239 164 292 29 30 56 53 59 50 3
-4 -14 -25 -38 -47 -51 -47 -84 -103 -148 -245 l-45 -103 1335 0 1334 0 0 253
0 254 -25 11 c-14 7 -31 12 -37 12 -7 0 -69 18 -138 40 -141 46 -218 70 -305
95 -95 28 -283 99 -365 138 l-75 36 3 68 c4 71 -17 208 -40 263 -7 17 -38 59
-68 93 -52 59 -191 189 -208 195 -5 1 -14 -10 -21 -25 -7 -16 -24 -45 -38 -65
-14 -20 -22 -42 -18 -47 3 -6 0 -9 -7 -6 -7 3 -59 -41 -118 -102 -106 -109
-159 -173 -142 -173 5 0 21 17 35 37 15 21 67 79 117 128 87 86 90 89 84 56
-6 -28 -5 -33 7 -26 12 8 12 6 1 -8 -8 -9 -12 -29 -11 -44 2 -15 -1 -34 -5
-42 -5 -8 -4 -16 4 -21 36 -22 -87 -233 -213 -363 -23 -25 -58 -62 -77 -84
-20 -22 -42 -37 -49 -35 -8 3 -11 0 -8 -5 4 -6 -6 -16 -21 -24 -14 -8 -35 -22
-45 -32 -10 -10 -22 -15 -27 -12 -6 4 -17 -1 -26 -9 -8 -9 -28 -16 -43 -16
-17 0 -35 -9 -47 -22 -10 -13 -12 -17 -4 -10 16 14 40 16 40 3 0 -10 -40 -22
-89 -27 -32 -3 -33 -2 -15 12 10 9 12 13 4 9 -8 -4 -6 1 4 9 11 9 18 16 15 17
-30 5 -67 4 -81 -3 -29 -14 -20 -2 15 22 l32 21 -38 -6 c-27 -4 -37 -3 -32 4
4 7 -4 11 -19 11 -16 0 -32 10 -45 29 -22 30 -27 51 -13 51 5 0 7 13 4 28 -3
24 1 29 32 42 20 7 36 18 36 23 0 4 9 6 19 2 11 -3 22 -1 26 5 3 5 -2 10 -12
11 -41 1 23 18 72 18 64 1 158 25 204 53 37 21 113 99 106 107 -3 2 -14 -8
-25 -22 -24 -30 -95 -80 -130 -91 -52 -16 -391 -28 -433 -14 -17 5 -42 11 -54
13 -70 10 -91 21 -136 68 -26 27 -50 62 -53 76 -3 14 -10 37 -15 51 -5 14 -10
55 -11 92 -2 58 -5 68 -20 68 -11 0 -18 7 -18 18 0 10 -4 22 -9 28 -16 17 -73
127 -82 158 -6 17 -12 67 -16 111 -3 44 -9 87 -14 96 -4 9 -5 26 -2 39 4 16 3
21 -5 16 -8 -5 -10 3 -6 26 4 22 3 29 -4 19 -7 -10 -11 -5 -16 18 -3 17 -9 45
-12 62 -4 17 -13 33 -20 36 -8 3 -14 13 -14 23 0 10 -7 23 -15 30 -8 7 -12 16
-9 21 10 17 -7 51 -23 45 -11 -4 -13 -1 -8 15 5 15 2 22 -13 26 -13 3 -18 11
-15 19 3 8 -1 14 -10 14 -14 0 -67 138 -67 175 0 8 -5 15 -11 15 -7 0 -9 29
-8 81 3 62 7 83 19 87 8 3 29 16 47 29 17 13 33 19 35 14 3 -10 87 7 98 20 3
3 14 9 25 13 19 7 19 8 -5 27 -22 17 -23 19 -5 17 14 -2 19 2 17 13 -1 9 4 21
11 27 10 9 16 4 26 -23 10 -30 17 -35 54 -39 23 -3 53 -4 66 -2 28 3 61 40 61
67 0 27 14 24 57 -13 21 -18 40 -34 43 -36 3 -2 -3 -10 -14 -17 -17 -13 -15
-14 18 -20 20 -4 43 -4 52 -1 25 9 35 -3 23 -26 -8 -15 -8 -26 1 -44 10 -18
10 -32 -1 -68 -7 -24 -16 -43 -21 -40 -4 3 -19 -21 -34 -52 -22 -46 -26 -69
-25 -126 1 -39 4 -74 6 -78 3 -5 0 -21 -6 -37 -6 -15 -17 -53 -25 -84 -16 -69
-1 -127 40 -147 14 -7 33 -26 41 -41 18 -35 60 -44 123 -25 25 8 57 14 71 14
15 0 44 16 69 38 l43 37 -40 3 c-22 1 -42 -2 -46 -8 -10 -16 -65 21 -65 43 0
10 -14 39 -32 63 l-31 44 12 97 c8 63 10 112 4 138 -11 51 -9 135 7 256 11 84
10 100 -4 127 -16 31 -50 59 -99 80 -15 7 -26 15 -24 20 6 9 -14 27 -30 28
-27 2 -33 4 -32 12 3 19 -2 26 -11 12 -8 -12 -12 -11 -30 8 -11 12 -28 22 -38
22 -13 0 -14 -2 -3 -9 7 -5 9 -11 5 -14 -13 -8 -65 4 -59 13 7 12 -166 4 -199
-9 -27 -11 -28 -10 -15 5 13 16 12 16 -8 6 -29 -16 -38 -15 -24 2 10 12 8 14
-11 9 -23 -5 -23 -5 2 16 l25 20 -53 -1 c-29 0 -56 2 -59 5 -9 10 -12 366 -3
372 4 3 9 21 9 40 1 19 2 41 3 48 1 7 -2 24 -5 39 -5 19 -3 28 9 32 12 4 15 2
10 -9 -4 -12 0 -14 22 -9 40 10 72 34 72 53 0 10 11 24 25 31 13 7 22 17 19
22 -3 4 6 8 21 8 14 0 43 11 65 25 47 30 65 33 30 5 -14 -11 -20 -20 -14 -20
6 0 20 8 32 18 16 14 18 22 10 30 -9 9 -9 12 -1 12 6 0 19 3 27 6 12 5 15 2
10 -10 -4 -12 0 -16 15 -16 12 0 21 4 21 9 0 4 12 6 28 4 15 -2 33 -5 40 -5 6
-1 12 -5 12 -9 0 -8 34 -22 62 -24 15 -1 15 1 2 26 -20 39 -18 42 11 13 14
-14 25 -29 25 -35 0 -6 8 -5 21 1 11 7 18 14 16 17 -11 10 33 42 49 36 12 -4
15 -3 10 5 -4 7 -2 12 5 12 9 0 9 4 -1 15 -12 15 -6 35 11 35 6 0 8 -4 5 -8
-2 -4 11 -6 30 -4 19 2 37 8 39 13 3 4 19 6 35 2 29 -5 30 -4 30 31 0 20 4 36
10 36 5 0 7 -7 4 -15 -4 -9 0 -15 9 -15 8 0 17 -7 21 -15 3 -8 12 -15 21 -15
8 0 15 -5 15 -10 0 -6 10 -2 22 10 15 14 24 16 29 9 4 -6 12 -8 19 -4 7 4 16
2 21 -6 7 -11 9 -11 9 -1 0 7 5 10 11 6 6 -3 15 0 20 7 4 8 14 14 21 15 33 3
38 5 38 18 0 8 5 16 10 18 7 2 5 17 -5 43 -14 37 -14 38 0 20 9 -11 24 -19 33
-17 14 2 15 1 2 -7 -12 -8 -10 -12 9 -19 16 -6 20 -11 13 -16 -19 -12 -14 -26
9 -26 16 0 20 -5 16 -20 -7 -25 3 -25 30 0 27 24 95 18 85 -8 -4 -12 -1 -14
12 -9 10 4 27 2 39 -5 12 -7 29 -12 37 -13 8 -1 25 -2 38 -3 13 -1 21 -6 18
-11 -3 -5 0 -13 7 -18 18 -14 56 -22 62 -13 3 4 14 10 26 13 24 7 19 -1 -13
-17 -28 -15 -33 -30 -13 -50 9 -9 13 -16 9 -16 -5 0 -3 -5 3 -11 6 -6 9 -18 6
-25 -4 -12 0 -12 21 -4 17 6 26 6 26 0 0 -6 -4 -10 -10 -10 -5 0 -7 -7 -4 -15
4 -8 1 -15 -5 -15 -6 0 -11 -5 -11 -10 0 -7 6 -8 16 -2 23 13 52 4 59 -19 3
-10 12 -16 20 -13 7 3 16 1 20 -5 9 -16 25 -13 25 4 0 8 5 15 10 15 6 0 10 10
11 23 0 17 4 13 18 -18 12 -27 20 -35 24 -25 3 8 6 -1 6 -20 1 -28 -2 -32 -10
-20 -9 12 -10 12 -5 -3 3 -10 6 -23 6 -28 0 -5 7 -9 15 -9 8 0 15 -9 15 -19 0
-11 3 -22 8 -25 4 -2 6 -25 4 -50 -3 -27 -8 -43 -14 -40 -6 4 -2 -5 7 -20 19
-29 13 -108 -7 -88 -6 6 -7 16 -2 24 14 22 14 42 1 53 -20 16 -37 65 -42 125
-5 54 -25 96 -25 52 0 -12 -4 -22 -9 -22 -4 0 -13 -15 -19 -32 l-10 -33 -2 40
c-1 31 -3 36 -9 20 -5 -11 -7 -23 -4 -27 2 -5 0 -8 -5 -8 -12 0 4 -79 20 -98
7 -7 13 -21 13 -30 1 -10 7 -44 13 -77 6 -33 14 -132 16 -219 3 -88 10 -164
16 -170 11 -11 11 -9 34 88 9 39 20 73 26 76 11 7 31 91 24 102 -3 5 0 7 6 6
7 -2 16 7 21 20 6 15 5 21 -1 17 -25 -16 -6 12 20 30 33 22 40 39 12 31 -16
-5 -18 -1 -16 21 12 137 16 203 15 231 -1 17 2 32 7 32 5 0 9 24 8 53 0 28 1
140 3 247 2 195 -17 371 -49 454 -18 48 -160 258 -194 288 l-31 28 -217 -1
-217 0 61 -55 c34 -30 67 -53 73 -50 15 6 101 -81 110 -111 3 -12 17 -31 31
-42 17 -13 27 -33 30 -58 l5 -38 -20 35 c-10 19 -16 39 -13 44 3 5 0 6 -6 2
-7 -4 -12 -2 -12 5 0 7 -2 10 -5 7 -3 -3 3 -30 15 -59 23 -62 23 -62 10 -54
-14 9 -13 4 16 -80 14 -42 24 -79 21 -82 -3 -3 -11 13 -18 36 -8 25 -18 41
-28 41 -9 0 -31 25 -50 55 -18 30 -38 55 -43 55 -5 0 -6 -6 -2 -12 3 -7 -5 1
-20 17 -14 17 -25 33 -26 37 0 4 -9 6 -20 5 -17 -1 -18 -4 -7 -22 28 -42 28
-61 2 -30 l-26 30 21 -43 c28 -58 21 -63 -9 -6 -14 25 -27 41 -30 35 -3 -5
-19 14 -34 42 -28 51 -28 51 -3 22 14 -16 25 -25 26 -19 0 5 -16 26 -36 45
-20 18 -45 48 -57 64 l-21 30 26 -23 c14 -13 30 -22 35 -20 6 2 22 -9 36 -24
14 -15 28 -24 31 -21 3 4 6 -1 6 -9 0 -9 7 -19 16 -22 23 -9 27 -8 20 9 -3 8
-1 15 4 15 6 0 10 -4 10 -10 0 -5 5 -10 11 -10 6 0 22 -14 36 -30 30 -36 42
-33 18 4 -9 14 -14 30 -10 36 4 6 3 16 -3 23 -5 7 -12 21 -15 32 -5 13 0 10
15 -10 25 -32 52 -89 39 -81 -11 7 -8 -50 3 -61 5 -5 6 -2 1 7 -8 13 -7 13 8
1 16 -12 17 -9 12 40 -5 58 -22 109 -36 109 -4 0 -29 18 -54 40 -49 42 -81 55
-49 19 14 -16 1 -12 -48 16 -78 43 -90 39 -20 -6 43 -29 42 -31 -4 -13 -14 6
-14 4 -3 -14 7 -11 16 -19 19 -17 3 2 7 -6 7 -18 2 -20 0 -20 -18 6 -12 15
-28 27 -37 27 -10 0 -30 9 -47 20 l-30 20 35 -6 c32 -5 31 -3 -25 30 -33 20
-63 36 -67 36 -5 0 -8 5 -8 11 0 8 4 8 13 2 20 -16 47 -23 47 -12 0 5 -10 13
-22 18 -15 5 -18 10 -9 15 6 4 31 -3 54 -17 46 -26 77 -39 77 -32 0 3 -24 19
-52 36 -29 17 -43 29 -30 26 12 -3 22 -1 22 4 0 5 -21 9 -46 9 -30 0 -43 -4
-38 -11 5 -8 1 -8 -14 0 -26 14 -114 15 -92 1 8 -5 15 -14 15 -21 0 -6 19 -21
42 -34 24 -12 50 -28 58 -35 27 -22 9 -22 -30 1 l-37 22 7 -24 c4 -13 15 -28
24 -33 9 -5 37 -30 63 -54 27 -25 48 -41 48 -35 0 5 -6 15 -12 23 -11 12 -10
12 3 2 9 -7 31 -36 49 -64 28 -46 29 -50 9 -33 -13 11 -30 26 -37 34 -10 12
-12 12 -12 1 0 -8 -18 3 -40 25 -36 35 -57 39 -27 5 6 -8 -1 -4 -18 10 -16 14
-34 31 -38 38 -4 6 -13 12 -19 12 -6 0 -5 -7 3 -17 13 -16 12 -17 -3 -5 -10 8
-16 18 -15 22 1 5 -7 15 -18 24 -20 15 -20 15 3 9 12 -3 25 -9 28 -14 3 -5 10
-9 17 -9 6 0 -6 17 -26 38 -20 21 -34 42 -30 47 5 6 4 7 -2 3 -16 -13 -45 -9
-45 7 0 8 -6 15 -14 15 -15 0 -66 39 -52 40 5 0 18 -7 28 -17 12 -11 18 -12
18 -4 0 9 10 11 33 6 l32 -6 -25 15 c-30 17 -296 22 -316 5 -9 -7 -19 -7 -32
0 -11 6 -152 10 -368 9 l-349 0 -42 -47z m197 29 c0 -5 -4 -10 -10 -10 -5 0
-10 5 -10 10 0 6 5 10 10 10 6 0 10 -4 10 -10z m656 -6 c17 -14 17 -15 1 -10
-10 3 -25 6 -33 6 -8 0 -14 5 -14 10 0 15 24 12 46 -6z m-139 0 c-3 -3 -12 -4
-19 -1 -8 3 -5 6 6 6 11 1 17 -2 13 -5z m263 -4 c-20 -13 -33 -13 -25 0 3 6
14 10 23 10 15 0 15 -2 2 -10z m-295 -28 c-3 -3 -11 0 -18 7 -9 10 -8 11 6 5
10 -3 15 -9 12 -12z m336 -2 l24 -21 -32 16 c-32 15 -42 25 -24 25 5 0 19 -9
32 -20z m-801 -30 c10 -7 1 -8 -30 -4 -56 8 -64 14 -19 14 19 0 41 -5 49 -10z
m825 -36 c14 -9 24 -19 21 -21 -6 -6 -83 34 -91 47 -8 13 35 -3 70 -26z m16
-60 c32 -19 62 -40 65 -46 8 -12 -4 -6 -48 24 -32 22 -39 23 -32 3 11 -28 -25
-16 -41 15 -27 51 -22 52 56 4z m-833 1 c3 -3 -10 -3 -29 -1 -19 2 -38 0 -44
-4 -5 -4 -21 -11 -35 -15 -23 -6 -23 -5 5 14 27 19 87 22 103 6z m757 -5 c10
-11 13 -20 7 -20 -6 0 -16 9 -22 20 -6 11 -9 20 -7 20 2 0 12 -9 22 -20z
m-895 -19 c0 -5 -7 -12 -16 -15 -24 -9 -28 -7 -14 9 14 17 30 20 30 6z m981
-86 c5 -11 -4 -4 -22 15 -28 32 -30 33 -24 10 6 -24 5 -24 -9 -6 -9 11 -19 16
-23 13 -4 -4 -1 -13 5 -19 14 -14 16 -48 2 -48 -5 0 -6 -7 -3 -17 5 -12 3 -14
-7 -8 -10 6 -12 4 -6 -10 13 -34 19 -112 7 -95 -16 23 -25 120 -13 132 6 6 8
18 3 27 -13 27 -7 56 11 56 9 0 20 4 24 8 8 8 36 -22 55 -58z m-395 -45 c3
-14 11 -49 19 -77 7 -29 10 -53 6 -53 -8 0 -25 37 -72 160 l-28 75 35 -40 c19
-21 37 -51 40 -65z m416 83 c18 -16 18 -16 12 0 -5 13 -2 16 9 11 14 -5 29
-27 31 -46 1 -3 5 -10 10 -15 6 -5 6 -2 1 7 -5 9 -5 12 1 7 5 -5 8 -12 7 -15
0 -4 4 -16 10 -27 9 -18 9 -19 -6 -6 -20 16 -20 16 -2 -34 8 -22 14 -53 14
-70 0 -28 -1 -27 -13 11 -12 39 -56 120 -92 172 -19 26 -9 29 18 5z m-557 -40
c17 -41 18 -46 6 -39 -5 4 -12 0 -15 -6 -3 -7 -3 -3 0 9 3 12 -2 36 -11 54 -9
17 -12 28 -6 24 6 -3 18 -22 26 -42z m630 29 c-3 -3 -11 0 -18 7 -9 10 -8 11
6 5 10 -3 15 -9 12 -12z m114 -42 c13 -20 6 -17 -31 14 -27 21 -48 41 -48 43
0 12 64 -35 79 -57z m-439 29 c0 -6 -4 -7 -10 -4 -5 3 -10 11 -10 16 0 6 5 7
10 4 6 -3 10 -11 10 -16z m64 -31 c14 -29 26 -66 25 -82 0 -30 -1 -30 -13 9
-7 22 -23 59 -35 83 -12 23 -17 42 -12 42 5 0 21 -23 35 -52z m-184 32 c0 -5
-2 -10 -4 -10 -3 0 -8 5 -11 10 -3 6 -1 10 4 10 6 0 11 -4 11 -10z m613 -37
c29 -27 72 -63 94 -81 28 -23 44 -46 51 -73 5 -21 6 -39 2 -39 -5 0 -11 14
-15 31 -4 16 -22 46 -41 65 -39 38 -46 42 -37 17 6 -16 5 -17 -12 -3 -14 11
-13 7 5 -17 28 -38 35 -42 20 -10 -11 21 -10 21 4 3 9 -10 13 -22 10 -27 -2
-4 0 -27 5 -51 10 -43 10 -43 -8 -19 -14 18 -20 21 -24 10 -4 -8 -4 -2 -1 12
3 16 0 32 -10 42 -9 8 -16 22 -16 30 0 28 -29 82 -59 111 -28 27 -39 46 -26
46 3 0 29 -21 58 -47z m-882 0 c13 -16 12 -17 -3 -4 -10 7 -18 15 -18 17 0 8
8 3 21 -13z m152 -35 c8 -24 19 -59 22 -78 7 -33 6 -34 -9 -15 -14 19 -15 16
-11 -40 2 -34 11 -90 19 -125 8 -35 13 -66 11 -68 -6 -6 -65 186 -65 211 0 18
2 19 11 7 11 -16 7 68 -7 123 -10 43 12 32 29 -15z m499 -53 c18 -35 40 -179
25 -165 -3 3 -14 28 -25 55 -11 28 -27 67 -36 87 -15 35 -15 37 1 31 17 -7 13
5 -12 37 -7 8 -15 24 -18 35 -10 30 39 -31 65 -80z m-723 55 c5 -16 14 -30 18
-30 5 0 26 -22 46 -50 38 -51 39 -63 3 -33 -12 10 -5 1 13 -20 19 -20 30 -37
25 -37 -6 0 -21 11 -34 25 -12 13 -27 22 -31 19 -5 -3 -6 3 -2 12 4 11 3 15
-5 10 -6 -3 -14 -1 -18 5 -4 8 -3 9 4 5 27 -16 9 19 -25 50 -33 30 -35 39 -10
35 11 -2 8 14 -5 27 -8 8 -8 12 -1 12 6 0 16 -13 22 -30z m509 -102 c-10 -6
-10 -8 0 -8 6 0 11 -10 11 -22 -1 -21 -2 -21 -7 -3 -4 16 -8 12 -18 -20 -12
-40 -12 -40 -12 35 0 56 2 69 9 50 7 -19 8 -14 4 21 -6 65 8 72 18 8 5 -39 4
-55 -5 -61z m-621 29 c31 -49 22 -60 -16 -21 -33 34 -55 98 -25 73 9 -7 28
-31 41 -52z m273 37 c0 -14 -4 -23 -10 -19 -5 3 -10 15 -10 26 0 10 5 19 10
19 6 0 10 -12 10 -26z m719 -88 c11 -31 21 -69 20 -84 -1 -26 -1 -26 -13 6 -6
18 -14 30 -18 27 -15 -15 -68 113 -68 160 1 24 60 -58 79 -109z m189 89 c-3
-3 -9 2 -12 12 -6 14 -5 15 5 6 7 -7 10 -15 7 -18z m285 10 c-3 -9 -8 -14 -10
-11 -3 3 -2 9 2 15 9 16 15 13 8 -4z m-986 -37 c-3 -7 -5 -2 -5 12 0 14 2 19
5 13 2 -7 2 -19 0 -25z m970 -15 c-3 9 -3 17 2 17 5 0 12 -20 15 -45 4 -25 11
-45 16 -45 4 0 11 -7 14 -16 6 -17 -1 -14 -46 20 -27 19 -40 45 -15 29 7 -4 6
2 -4 17 -8 14 -19 34 -22 45 -5 15 0 12 20 -10 15 -16 24 -22 20 -12z m310 -5
c-3 -7 -5 -2 -5 12 0 14 2 19 5 13 2 -7 2 -19 0 -25z m-1996 -19 c-5 -13 -10
-19 -10 -12 -1 15 10 45 15 40 3 -2 0 -15 -5 -28z m109 16 c0 -8 -2 -15 -4
-15 -2 0 -6 7 -10 15 -3 8 -1 15 4 15 6 0 10 -7 10 -15z m105 -27 c17 -29 17
-31 1 -19 -21 17 -40 51 -29 51 5 0 17 -15 28 -32z m496 -45 c2 -73 -1 -94
-12 -113 -6 -10 -9 19 -8 78 2 100 18 129 20 35z m-207 -8 c4 -34 3 -43 -3
-30 -9 19 -15 93 -7 84 2 -2 6 -26 10 -54z m-482 -87 c27 -40 66 -78 81 -78 8
0 18 -7 21 -16 10 -27 -54 19 -97 69 -31 36 -38 53 -42 98 l-5 54 13 -52 c8
-28 21 -62 29 -75z m244 81 c19 -22 19 -22 -3 -8 -13 8 -23 17 -23 21 0 12 6
9 26 -13z m174 -48 c0 -9 5 -22 12 -29 7 -7 8 -12 2 -12 -10 0 -64 92 -64 107
1 16 50 -49 50 -66z m-371 -17 c12 -19 21 -38 21 -41 0 -9 -36 40 -43 60 -10
28 -1 20 22 -19z m448 -16 c-3 -7 -5 -2 -5 12 0 14 2 19 5 13 2 -7 2 -19 0
-25z m1468 12 c3 -5 1 -10 -4 -10 -6 0 -11 5 -11 10 0 6 2 10 4 10 3 0 8 -4
11 -10z m-1086 -60 c11 -24 11 -24 -3 -6 -9 11 -16 24 -16 30 0 12 5 7 19 -24z
m-773 -1 c19 -22 19 -22 -3 -8 -13 8 -23 17 -23 21 0 12 6 9 26 -13z m-171
-36 l18 -28 -21 19 c-12 11 -22 23 -22 28 0 14 7 9 25 -19z m1415 7 c0 -5 -5
-10 -11 -10 -5 0 -7 5 -4 10 3 6 8 10 11 10 2 0 4 -4 4 -10z m94 -5 c-4 -8
-13 -15 -22 -15 -13 0 -12 3 4 15 24 18 25 18 18 0z m513 -7 c-3 -8 -6 -5 -6
6 -1 11 2 17 5 13 3 -3 4 -12 1 -19z m-1982 -48 c10 -11 16 -20 13 -20 -3 0
-13 9 -23 20 -10 11 -16 20 -13 20 3 0 13 -9 23 -20z m421 -69 c-8 -12 -55
-20 -61 -10 -3 4 7 10 22 12 16 2 32 5 36 6 5 0 6 -3 3 -8z m1354 -96 c0 -8
-4 -15 -8 -15 -5 0 -9 7 -9 15 0 8 4 15 9 15 4 0 8 -7 8 -15z m189 -184 c-2
-23 -2 -24 -6 -3 -2 12 -9 22 -14 22 -5 0 -9 4 -9 10 0 5 7 7 15 4 9 -4 14
-17 14 -33z m48 -287 c-3 -3 -12 -4 -19 -1 -8 3 -5 6 6 6 11 1 17 -2 13 -5z
m-1562 -284 c7 -11 -4 -13 -72 -14 -42 -1 -50 3 -36 17 10 11 101 8 108 -3z
m95 -80 c12 -8 12 -10 -2 -15 -10 -4 -27 0 -40 9 l-22 16 24 0 c14 0 32 -4 40
-10z m194 -46 c4 -10 1 -14 -6 -12 -15 5 -23 28 -10 28 5 0 13 -7 16 -16z
m-454 -584 c0 -5 -4 -10 -10 -10 -5 0 -10 5 -10 10 0 6 5 10 10 10 6 0 10 -4
10 -10z m1478 -665 c0 -16 -2 -15 -8 5 -11 34 -11 60 0 35 5 -11 8 -29 8 -40z
m-9 -157 c-6 -24 -14 -37 -16 -30 -3 7 0 27 6 44 6 17 12 49 13 72 l1 41 4
-42 c2 -23 -1 -61 -8 -85z m-24 -78 c-4 -12 -9 -19 -12 -17 -3 3 -2 15 2 27 4
12 9 19 12 17 3 -3 2 -15 -2 -27z m-46 -107 c-13 -23 -27 -43 -31 -43 -5 0 -8
-9 -8 -20 0 -11 -4 -20 -10 -20 -13 0 -13 27 -1 35 6 3 22 31 37 63 16 33 29
51 32 43 3 -8 -6 -34 -19 -58z m-95 -140 c-15 -26 -31 -50 -35 -53 -3 -3 -11
-18 -16 -35 -6 -16 -15 -29 -21 -28 -7 2 -9 -4 -5 -13 4 -12 1 -15 -12 -13
-10 2 -19 7 -19 12 -1 9 128 186 132 182 2 -2 -9 -25 -24 -52z m-99 -152 c7
-12 -12 -24 -25 -16 -11 7 -4 25 10 25 5 0 11 -4 15 -9z m-954 -41 c6 0 21
-11 35 -25 14 -14 29 -23 34 -20 5 3 7 -3 5 -14 -2 -10 3 -27 11 -38 9 -10 13
-12 9 -5 -4 7 1 12 14 12 14 0 22 -8 27 -27 3 -16 10 -38 15 -51 5 -13 7 -29
3 -35 -3 -7 1 -4 9 5 8 10 17 15 20 11 4 -3 7 -1 7 5 0 7 -6 12 -14 12 -9 0
-13 7 -11 20 2 11 0 20 -6 20 -5 0 -9 5 -9 12 0 6 8 4 19 -6 14 -13 21 -14 26
-6 4 7 1 16 -6 21 -16 10 -8 12 15 3 8 -3 12 -12 9 -20 -3 -9 1 -14 12 -14 9
0 13 5 10 10 -9 15 4 12 21 -5 15 -14 54 -21 54 -10 0 3 -11 10 -25 15 -15 6
-25 17 -24 27 1 17 2 17 6 1 5 -19 23 -25 23 -8 0 6 12 10 28 9 15 0 21 -3 15
-6 -20 -7 -15 -23 6 -23 26 0 35 -16 14 -24 -15 -6 -15 -8 -3 -17 11 -8 3 -9
-30 -6 -25 2 -37 2 -27 0 16 -4 45 -43 31 -43 -3 0 -1 -7 6 -15 11 -13 10 -14
-5 -9 -13 5 -16 4 -10 -5 6 -10 3 -11 -13 -2 -12 6 -25 10 -29 10 -20 -5 -40
14 -36 31 4 15 1 18 -16 13 -17 -4 -19 -8 -10 -19 9 -11 8 -14 -2 -14 -35 0
-61 15 -75 42 -10 20 -11 28 -3 23 8 -5 10 -4 5 4 -4 6 -12 9 -17 5 -10 -6
-41 25 -113 116 -32 40 -40 58 -32 66 8 8 12 6 14 -7 2 -11 8 -19 13 -19z
m714 -40 c-3 -5 -12 -10 -18 -10 -7 0 -6 4 3 10 19 12 23 12 15 0z m-288 -36
c-3 -3 -12 -4 -19 -1 -8 3 -5 6 6 6 11 1 17 -2 13 -5z m-182 -175 c11 -17 0
-20 -21 -4 -17 13 -17 14 -2 15 9 0 20 -5 23 -11z m65 -46 c23 -20 45 -45 51
-55 5 -10 -11 2 -37 27 -25 25 -50 45 -55 45 -5 0 -9 5 -9 10 0 16 8 12 50
-27z m-75 -43 c21 -24 11 -27 -12 -4 -11 10 -29 15 -54 12 -20 -2 -35 0 -33 4
11 17 81 8 99 -12z m-37 -39 c6 -1 12 -5 12 -10 0 -13 -53 -7 -58 7 -2 6 5 9
15 7 10 -2 24 -4 31 -4z"/>
<path d="M2546 4251 c-3 -4 6 -13 19 -19 14 -7 25 -8 25 -4 0 12 -39 32 -44
23z"/>
<path d="M2285 4220 c4 -6 11 -8 16 -5 14 9 11 15 -7 15 -8 0 -12 -5 -9 -10z"/>
<path d="M2710 4130 c6 -11 13 -20 16 -20 2 0 0 9 -6 20 -6 11 -13 20 -16 20
-2 0 0 -9 6 -20z"/>
<path d="M2730 4011 c0 -6 4 -13 10 -16 6 -3 7 1 4 9 -7 18 -14 21 -14 7z"/>
<path d="M2953 3252 c-8 -5 -7 -12 4 -27 15 -19 15 -19 9 -1 -4 12 -1 23 6 28
7 4 9 8 3 8 -5 0 -15 -4 -22 -8z"/>
<path d="M3126 3124 c-4 -9 -4 -19 -1 -22 2 -3 7 3 11 12 4 9 4 19 1 22 -2 3
-7 -3 -11 -12z"/>
<path d="M2868 2733 c6 -2 18 -2 25 0 6 3 1 5 -13 5 -14 0 -19 -2 -12 -5z"/>
<path d="M2478 2713 c-7 -8 -13 -22 -14 -31 -2 -8 -8 -18 -15 -23 -8 -5 -2 -9
17 -11 25 -3 18 -7 -46 -31 -42 -16 -81 -37 -88 -48 -12 -19 -10 -21 21 -23 6
-1 15 -5 19 -10 4 -6 14 -4 24 5 16 13 16 12 6 -7 -19 -37 -2 -35 51 6 l51 38
15 -46 16 -47 59 -1 c68 -2 96 17 96 66 0 17 3 30 8 30 17 0 52 -32 52 -48 0
-19 42 -42 79 -42 24 0 24 0 5 21 -19 21 -19 22 4 15 36 -12 26 12 -24 60 -26
24 -52 40 -60 37 -8 -3 -21 0 -29 7 -8 6 -19 9 -25 5 -5 -3 -10 -1 -10 5 0 6
-5 8 -10 5 -14 -8 -50 4 -50 16 0 7 33 9 85 7 47 -2 85 0 85 5 0 4 9 7 19 7
30 0 34 17 6 22 -17 4 -25 1 -25 -9 0 -9 -5 -11 -12 -6 -7 4 -29 8 -48 8 -19
0 -35 4 -35 9 0 16 -56 26 -78 15 -11 -6 -22 -7 -26 -3 -11 16 -110 13 -123
-3z m172 -148 c0 -19 -28 -26 -50 -12 -25 15 -25 24 -2 29 26 6 52 -3 52 -17z
m-60 -55 c12 -8 9 -9 -12 -8 -15 1 -24 6 -22 10 7 10 16 10 34 -2z"/>
<path d="M3156 2583 c-15 -15 -3 -40 29 -60 42 -28 57 -29 47 -5 -17 44 -60
80 -76 65z"/>
<path d="M2330 1822 c-21 -17 -21 -17 11 -17 34 0 50 19 25 28 -8 3 -24 -2
-36 -11z"/>
<path d="M2640 1655 c-10 -12 -10 -15 4 -15 9 0 16 7 16 15 0 8 -2 15 -4 15
-2 0 -9 -7 -16 -15z"/>
<path d="M1775 1542 c-50 -42 -50 -48 -6 -98 23 -26 41 -57 41 -70 0 -12 5
-26 11 -29 6 -4 8 -13 5 -21 -3 -7 -1 -16 4 -19 6 -4 10 -14 10 -24 0 -26 89
-62 182 -72 44 -5 84 -12 89 -15 19 -12 189 31 189 48 0 4 -12 6 -27 3 -88
-13 -120 -14 -179 -5 -48 8 -78 19 -109 43 -23 18 -52 39 -63 46 -13 9 -20 23
-17 35 2 12 4 23 4 26 1 8 216 4 230 -4 6 -4 18 -3 25 3 14 12 77 27 172 40
33 5 69 13 80 18 10 5 37 19 59 30 22 11 53 23 69 27 22 5 26 10 17 19 -9 9
-19 7 -44 -5 -44 -23 -104 -38 -152 -38 -22 0 -51 -6 -65 -13 -19 -10 -46 -11
-110 -5 -47 5 -94 6 -104 4 -26 -7 -56 11 -56 32 0 10 -3 13 -8 7 -8 -11 -132
-14 -132 -3 0 9 -72 58 -85 58 -5 0 -19 -8 -30 -18z"/>
<path d="M2630 980 c-6 -11 -8 -20 -6 -20 3 0 10 9 16 20 6 11 8 20 6 20 -3 0
-10 -9 -16 -20z"/>
</g>
</svg>
